<svg xmlns="http://www.w3.org/2000/svg" version="1.1" xmlns:xlink="http://www.w3.org/1999/xlink" xmlns:svgjs="http://svgjs.dev/svgjs" width="500" height="500"><path d="M0 0 L500 0 L500 500 L0 500 L0 0 Z" fill="#001122"></path><path d="MNaN 83.33333333333333 CNaN 37.309604183333335 NaN 0 NaN 0 CNaN 0 NaN 37.309604183333335 NaN 83.33333333333333 CNaN 129.35706248333332 NaN 166.66666666666666 NaN 166.66666666666666 CNaN 166.66666666666666 NaN 129.35706248333332 NaN 83.33333333333333 Z" fill="#f2f2f2"></path><path d="MNaN 83.33333333333333 CNaN 37.309604183333335 NaN 0 NaN 0 CNaN 0 NaN 37.309604183333335 NaN 83.33333333333333 CNaN 129.35706248333332 NaN 166.66666666666666 NaN 166.66666666666666 CNaN 166.66666666666666 NaN 129.35706248333332 NaN 83.33333333333333 Z" fill="#f2f2f2"></path><path d="MNaN 83.33333333333333 CNaN 37.309604183333335 NaN 0 NaN 0 CNaN 0 NaN 37.309604183333335 NaN 83.33333333333333 CNaN 129.35706248333332 NaN 166.66666666666666 NaN 166.66666666666666 CNaN 166.66666666666666 NaN 129.35706248333332 NaN 83.33333333333333 Z" fill="#f2f2f2"></path><path d="MNaN 250 CNaN 203.97627085 NaN 166.66666666666669 NaN 166.66666666666669 CNaN 166.66666666666669 NaN 203.97627085 NaN 250 CNaN 296.02372915 NaN 333.3333333333333 NaN 333.3333333333333 CNaN 333.3333333333333 NaN 296.02372915 NaN 250 Z" fill="#f2f2f2"></path><path d="MNaN 250 CNaN 203.97627085 NaN 166.66666666666669 NaN 166.66666666666669 CNaN 166.66666666666669 NaN 203.97627085 NaN 250 CNaN 296.02372915 NaN 333.3333333333333 NaN 333.3333333333333 CNaN 333.3333333333333 NaN 296.02372915 NaN 250 Z" fill="#f2f2f2"></path><path d="MNaN 250 CNaN 203.97627085 NaN 166.66666666666669 NaN 166.66666666666669 CNaN 166.66666666666669 NaN 203.97627085 NaN 250 CNaN 296.02372915 NaN 333.3333333333333 NaN 333.3333333333333 CNaN 333.3333333333333 NaN 296.02372915 NaN 250 Z" fill="#f2f2f2"></path><path d="MNaN 416.66666666666663 CNaN 370.6429375166666 NaN 333.3333333333333 NaN 333.3333333333333 CNaN 333.3333333333333 NaN 370.6429375166666 NaN 416.66666666666663 CNaN 462.69039581666664 NaN 499.99999999999994 NaN 499.99999999999994 CNaN 499.99999999999994 NaN 462.69039581666664 NaN 416.66666666666663 Z" fill="#f2f2f2"></path><path d="MNaN 416.66666666666663 CNaN 370.6429375166666 NaN 333.3333333333333 NaN 333.3333333333333 CNaN 333.3333333333333 NaN 370.6429375166666 NaN 416.66666666666663 CNaN 462.69039581666664 NaN 499.99999999999994 NaN 499.99999999999994 CNaN 499.99999999999994 NaN 462.69039581666664 NaN 416.66666666666663 Z" fill="#f2f2f2"></path><path d="MNaN 416.66666666666663 CNaN 370.6429375166666 NaN 333.3333333333333 NaN 333.3333333333333 CNaN 333.3333333333333 NaN 370.6429375166666 NaN 416.66666666666663 CNaN 462.69039581666664 NaN 499.99999999999994 NaN 499.99999999999994 CNaN 499.99999999999994 NaN 462.69039581666664 NaN 416.66666666666663 Z" fill="#f2f2f2"></path></svg>